<svg width="256" height="256" viewBox="0 0 256 256" fill="none" xmlns="http://www.w3.org/2000/svg">
<path d="M239.73 208H224V96C224 91.7565 222.314 87.6869 219.314 84.6863C216.313 81.6857 212.243 80 208 80H164C162.939 80 161.922 80.4214 161.172 81.1716C160.421 81.9217 160 82.9391 160 84V208H144V32.41C144.026 29.9178 143.486 27.4523 142.418 25.2C141.351 22.9477 139.786 20.9678 137.84 19.41C135.188 17.3424 131.952 16.1629 128.592 16.039C125.231 15.9151 121.917 16.8532 119.12 18.72L39.12 72C36.9254 73.4642 35.1269 75.4484 33.8847 77.7758C32.6424 80.1033 31.995 82.7018 32 85.34V208H16.27C14.2027 207.969 12.2004 208.723 10.6661 210.109C9.13182 211.495 8.17923 213.41 8 215.47C7.92734 216.564 8.08045 217.662 8.44983 218.694C8.81921 219.727 9.39696 220.673 10.1472 221.473C10.8974 222.273 11.8041 222.91 12.811 223.345C13.8178 223.779 14.9033 224.002 16 224H240C241.097 224.002 242.182 223.779 243.189 223.345C244.196 222.91 245.103 222.273 245.853 221.473C246.603 220.673 247.181 219.727 247.55 218.694C247.92 217.662 248.073 216.564 248 215.47C247.821 213.41 246.868 211.495 245.334 210.109C243.8 208.723 241.797 207.969 239.73 208ZM76 184C76.0024 185.097 75.7793 186.182 75.3445 187.189C74.9098 188.196 74.2726 189.103 73.4727 189.853C72.6727 190.603 71.7271 191.181 70.6945 191.55C69.6618 191.92 68.5643 192.073 67.47 192C65.4085 191.821 63.4915 190.867 62.1054 189.33C60.7192 187.794 59.9669 185.789 60 183.72V168.27C59.9718 166.203 60.7261 164.202 62.1115 162.669C63.497 161.135 65.4111 160.182 67.47 160C68.5643 159.927 69.6618 160.08 70.6945 160.45C71.7271 160.819 72.6727 161.397 73.4727 162.147C74.2726 162.897 74.9098 163.804 75.3445 164.811C75.7793 165.818 76.0024 166.903 76 168V184ZM76 128C76.0024 129.097 75.7793 130.182 75.3445 131.189C74.9098 132.196 74.2726 133.103 73.4727 133.853C72.6727 134.603 71.7271 135.181 70.6945 135.55C69.6618 135.92 68.5643 136.073 67.47 136C65.4094 135.818 63.4938 134.864 62.1081 133.328C60.7224 131.792 59.9693 129.788 60 127.72V112.27C59.9718 110.203 60.7261 108.202 62.1115 106.669C63.497 105.135 65.4111 104.182 67.47 104C68.5643 103.927 69.6618 104.08 70.6945 104.45C71.7271 104.819 72.6727 105.397 73.4727 106.147C74.2726 106.897 74.9098 107.804 75.3445 108.811C75.7793 109.818 76.0024 110.903 76 112V128ZM116 184C116.002 185.097 115.779 186.182 115.345 187.189C114.91 188.196 114.273 189.103 113.473 189.853C112.673 190.603 111.727 191.181 110.694 191.55C109.662 191.92 108.564 192.073 107.47 192C105.412 191.821 103.498 190.87 102.112 189.338C100.727 187.805 99.972 185.806 100 183.74V168.27C99.9744 166.205 100.73 164.207 102.115 162.675C103.5 161.143 105.413 160.191 107.47 160.01C108.564 159.937 109.662 160.09 110.694 160.46C111.727 160.829 112.673 161.407 113.473 162.157C114.273 162.907 114.91 163.814 115.345 164.821C115.779 165.828 116.002 166.913 116 168.01V184ZM116 128C116.002 129.097 115.779 130.182 115.345 131.189C114.91 132.196 114.273 133.103 113.473 133.853C112.673 134.603 111.727 135.181 110.694 135.55C109.662 135.92 108.564 136.073 107.47 136C105.413 135.819 103.5 134.867 102.115 133.335C100.73 131.803 99.9744 129.805 100 127.74V112.27C99.9744 110.205 100.73 108.207 102.115 106.675C103.5 105.143 105.413 104.191 107.47 104.01C108.564 103.937 109.662 104.09 110.694 104.46C111.727 104.829 112.673 105.407 113.473 106.157C114.273 106.907 114.91 107.814 115.345 108.821C115.779 109.828 116.002 110.913 116 112.01V128Z" fill="white"/>
</svg>
