<svg width="256" height="256" viewBox="0 0 256 256" fill="none" xmlns="http://www.w3.org/2000/svg">
<g clip-path="url(#clip0_321_1426)">
<path d="M96 216C96 219.165 95.0616 222.258 93.3035 224.889C91.5454 227.52 89.0466 229.571 86.1229 230.782C83.1993 231.993 79.9823 232.31 76.8786 231.693C73.7749 231.075 70.9239 229.551 68.6863 227.314C66.4487 225.076 64.9248 222.225 64.3074 219.121C63.6901 216.018 64.0069 212.801 65.2179 209.877C66.4289 206.953 68.4797 204.455 71.1109 202.696C73.7421 200.938 76.8355 200 80 200C84.2435 200 88.3131 201.686 91.3137 204.686C94.3143 207.687 96 211.757 96 216ZM184 200C180.835 200 177.742 200.938 175.111 202.696C172.48 204.455 170.429 206.953 169.218 209.877C168.007 212.801 167.69 216.018 168.307 219.121C168.925 222.225 170.449 225.076 172.686 227.314C174.924 229.551 177.775 231.075 180.879 231.693C183.982 232.31 187.199 231.993 190.123 230.782C193.047 229.571 195.545 227.52 197.304 224.889C199.062 222.258 200 219.165 200 216C200 211.757 198.314 207.687 195.314 204.686C192.313 201.686 188.243 200 184 200ZM230.44 67.25C229.696 66.2418 228.726 65.4224 227.607 64.8579C226.489 64.2934 225.253 63.9996 224 64H48.32L40.21 35.6C39.2421 32.2634 37.2196 29.3301 34.4453 27.239C31.671 25.1479 28.2941 24.0115 24.82 24H8C5.87827 24 3.84344 24.8429 2.34315 26.3431C0.842855 27.8434 0 29.8783 0 32C0 34.1217 0.842855 36.1566 2.34315 37.6569C3.84344 39.1571 5.87827 40 8 40H24.82L61 166.59C62.4479 171.595 65.4782 175.996 69.6371 179.135C73.796 182.274 78.8597 183.98 84.07 184H180.18C185.317 184.018 190.323 182.38 194.455 179.328C198.587 176.277 201.626 171.975 203.12 167.06L231.65 74.35C232.017 73.1543 232.099 71.8892 231.889 70.6561C231.679 69.4231 231.183 68.2565 230.44 67.25Z" fill="white"/>
</g>
<defs>
<clipPath id="clip0_321_1426">
<rect width="256" height="256" fill="white"/>
</clipPath>
</defs>
</svg>
