<svg width="256" height="256" viewBox="0 0 256 256" fill="none" xmlns="http://www.w3.org/2000/svg">
<path d="M224 115.55V208C224 212.243 222.314 216.313 219.314 219.314C216.313 222.314 212.243 224 208 224H168C163.757 224 159.687 222.314 156.686 219.314C153.686 216.313 152 212.243 152 208V168C152 165.878 151.157 163.843 149.657 162.343C148.157 160.843 146.122 160 144 160H112C109.878 160 107.843 160.843 106.343 162.343C104.843 163.843 104 165.878 104 168V208C104 212.243 102.314 216.313 99.3137 219.314C96.3131 222.314 92.2435 224 88 224H48C43.7565 224 39.6869 222.314 36.6863 219.314C33.6857 216.313 32 212.243 32 208V115.55C31.9997 113.336 32.459 111.145 33.3489 109.118C34.2388 107.09 35.54 105.269 37.17 103.77L117.17 28.29L117.28 28.18C120.225 25.5013 124.064 24.017 128.045 24.017C132.026 24.017 135.865 25.5013 138.81 28.18C138.844 28.2191 138.881 28.2559 138.92 28.29L218.92 103.77C220.534 105.277 221.818 107.101 222.692 109.129C223.567 111.156 224.012 113.342 224 115.55Z" fill="white"/>
</svg>
