<svg width="256" height="256" viewBox="0 0 256 256" fill="none" xmlns="http://www.w3.org/2000/svg">
<path d="M224 104H215.63C213.62 82.1487 203.518 61.8368 187.307 47.0482C171.095 32.2595 149.944 24.0612 128 24.0612C106.056 24.0612 84.9046 32.2595 68.6931 47.0482C52.4816 61.8368 42.3801 82.1487 40.37 104H32C29.8783 104 27.8434 104.843 26.3431 106.343C24.8429 107.843 24 109.878 24 112C24.0352 131.025 29.2709 149.679 39.1411 165.943C49.0113 182.208 63.1402 195.465 80 204.28V208C80 212.243 81.6857 216.313 84.6863 219.314C87.6869 222.314 91.7565 224 96 224H160C164.243 224 168.313 222.314 171.314 219.314C174.314 216.313 176 212.243 176 208V204.28C192.86 195.465 206.989 182.208 216.859 165.943C226.729 149.679 231.965 131.025 232 112C232 109.878 231.157 107.843 229.657 106.343C228.157 104.843 226.122 104 224 104ZM173.48 56.23C175.313 57.73 177.07 59.3133 178.75 60.98C157.454 68.4715 139.855 83.868 129.6 103.98H100.1C105.1 89.9643 114.305 77.8341 126.458 69.2465C138.611 60.6588 153.119 56.0327 168 56C169.83 56 171.66 56.09 173.48 56.23ZM148.12 104C157.819 89.4489 172.493 78.9351 189.39 74.43C194.915 83.4165 198.381 93.5149 199.54 104H148.12ZM128 40C134.42 40.0042 140.81 40.8686 147 42.57C131.924 46.3097 118.101 53.9574 106.923 64.7422C95.7447 75.527 87.607 89.0679 83.33 104H56.46C58.4444 86.4086 66.8332 70.1627 80.0271 58.3594C93.2209 46.5561 110.297 40.021 128 40Z" fill="white"/>
</svg>
